M48
; DRILL file {KiCad 8.0.6} date 2024-10-27T05:07:00+0900
; FORMAT={-:-/ absolute / metric / decimal}
; #@! TF.CreationDate,2024-10-27T05:07:00+09:00
; #@! TF.GenerationSoftware,Kicad,Pcbnew,8.0.6
; #@! TF.FileFunction,MixedPlating,1,2
FMAT,2
METRIC
; #@! TA.AperFunction,Plated,PTH,ViaDrill
T1C0.300
; #@! TA.AperFunction,Plated,PTH,ComponentDrill
T2C0.800
; #@! TA.AperFunction,Plated,PTH,ComponentDrill
T3C1.000
; #@! TA.AperFunction,NonPlated,NPTH,ComponentDrill
T4C2.200
%
G90
G05
T1
X90.17Y-58.42
X90.17Y-101.6
X90.378Y-91.743
X90.378Y-134.923
X91.817Y-93.39
X91.817Y-136.57
X92.1Y-70.485
X92.1Y-113.665
X92.71Y-58.42
X92.71Y-66.04
X92.71Y-73.66
X92.71Y-76.2
X92.71Y-78.74
X92.71Y-95.25
X92.71Y-97.79
X92.71Y-101.6
X92.71Y-109.22
X92.71Y-116.84
X92.71Y-119.38
X92.71Y-121.92
X92.71Y-138.43
X92.71Y-140.97
X93.267Y-92.788
X93.267Y-135.968
X93.907Y-83.112
X93.907Y-126.292
X93.98Y-80.645
X93.98Y-123.825
X94.005Y-79.451
X94.005Y-122.631
X95.25Y-58.42
X95.25Y-66.04
X95.25Y-68.58
X95.25Y-73.66
X95.25Y-85.725
X95.25Y-87.63
X95.25Y-92.71
X95.25Y-95.25
X95.25Y-97.79
X95.25Y-101.6
X95.25Y-109.22
X95.25Y-111.76
X95.25Y-116.84
X95.25Y-128.905
X95.25Y-130.81
X95.25Y-135.89
X95.25Y-138.43
X95.25Y-140.97
X95.567Y-71.438
X95.567Y-114.617
X95.684Y-74.93
X95.684Y-118.11
X97.721Y-81.707
X97.721Y-124.887
X97.79Y-58.42
X97.79Y-66.04
X97.79Y-68.58
X97.79Y-73.66
X97.79Y-83.82
X97.79Y-85.725
X97.79Y-87.63
X97.79Y-92.71
X97.79Y-95.25
X97.79Y-97.79
X97.79Y-101.6
X97.79Y-109.22
X97.79Y-111.76
X97.79Y-116.84
X97.79Y-127.0
X97.79Y-128.905
X97.79Y-130.81
X97.79Y-135.89
X97.79Y-138.43
X97.79Y-140.97
X99.06Y-83.82
X99.06Y-127.0
X100.33Y-58.42
X100.33Y-66.04
X100.33Y-68.58
X100.33Y-71.12
X100.33Y-92.71
X100.33Y-95.25
X100.33Y-97.79
X100.33Y-101.6
X100.33Y-109.22
X100.33Y-111.76
X100.33Y-114.3
X100.33Y-135.89
X100.33Y-138.43
X100.33Y-140.97
X100.965Y-83.147
X100.965Y-126.327
X101.6Y-81.28
X101.6Y-124.46
X101.682Y-88.265
X101.682Y-131.445
X101.695Y-92.388
X101.695Y-135.568
X102.295Y-89.623
X102.295Y-94.675
X102.295Y-132.803
X102.295Y-137.855
X102.434Y-79.621
X102.434Y-122.801
X102.87Y-58.42
X102.87Y-101.6
X102.908Y-90.825
X102.908Y-134.005
X110.49Y-58.42
X110.49Y-101.6
X110.698Y-91.743
X110.698Y-134.923
X112.137Y-93.39
X112.137Y-136.57
X112.42Y-70.485
X112.42Y-113.665
X113.03Y-58.42
X113.03Y-66.04
X113.03Y-73.66
X113.03Y-76.2
X113.03Y-78.74
X113.03Y-95.25
X113.03Y-97.79
X113.03Y-101.6
X113.03Y-109.22
X113.03Y-116.84
X113.03Y-119.38
X113.03Y-121.92
X113.03Y-138.43
X113.03Y-140.97
X113.587Y-92.788
X113.587Y-135.968
X114.227Y-83.112
X114.227Y-126.292
X114.3Y-80.645
X114.3Y-123.825
X114.325Y-79.451
X114.325Y-122.631
X115.57Y-58.42
X115.57Y-66.04
X115.57Y-68.58
X115.57Y-73.66
X115.57Y-85.725
X115.57Y-87.63
X115.57Y-92.71
X115.57Y-95.25
X115.57Y-97.79
X115.57Y-101.6
X115.57Y-109.22
X115.57Y-111.76
X115.57Y-116.84
X115.57Y-128.905
X115.57Y-130.81
X115.57Y-135.89
X115.57Y-138.43
X115.57Y-140.97
X115.887Y-71.438
X115.887Y-114.617
X116.004Y-74.93
X116.004Y-118.11
X118.041Y-81.707
X118.041Y-124.887
X118.11Y-58.42
X118.11Y-66.04
X118.11Y-68.58
X118.11Y-73.66
X118.11Y-83.82
X118.11Y-85.725
X118.11Y-87.63
X118.11Y-92.71
X118.11Y-95.25
X118.11Y-97.79
X118.11Y-101.6
X118.11Y-109.22
X118.11Y-111.76
X118.11Y-116.84
X118.11Y-127.0
X118.11Y-128.905
X118.11Y-130.81
X118.11Y-135.89
X118.11Y-138.43
X118.11Y-140.97
X119.38Y-83.82
X119.38Y-127.0
X120.65Y-58.42
X120.65Y-66.04
X120.65Y-68.58
X120.65Y-71.12
X120.65Y-92.71
X120.65Y-95.25
X120.65Y-97.79
X120.65Y-101.6
X120.65Y-109.22
X120.65Y-111.76
X120.65Y-114.3
X120.65Y-135.89
X120.65Y-138.43
X120.65Y-140.97
X121.285Y-83.147
X121.285Y-126.327
X121.92Y-81.28
X121.92Y-124.46
X122.002Y-88.265
X122.002Y-131.445
X122.015Y-92.388
X122.015Y-135.568
X122.615Y-89.623
X122.615Y-94.675
X122.615Y-132.803
X122.615Y-137.855
X122.754Y-79.621
X122.754Y-122.801
X123.19Y-58.42
X123.19Y-101.6
X123.228Y-90.825
X123.228Y-134.005
X130.81Y-58.42
X130.81Y-101.6
X131.018Y-91.743
X131.018Y-134.923
X132.457Y-93.39
X132.457Y-136.57
X132.74Y-70.485
X132.74Y-113.665
X133.35Y-58.42
X133.35Y-66.04
X133.35Y-73.66
X133.35Y-76.2
X133.35Y-78.74
X133.35Y-95.25
X133.35Y-97.79
X133.35Y-101.6
X133.35Y-109.22
X133.35Y-116.84
X133.35Y-119.38
X133.35Y-121.92
X133.35Y-138.43
X133.35Y-140.97
X133.907Y-92.788
X133.907Y-135.968
X134.547Y-83.112
X134.547Y-126.292
X134.62Y-80.645
X134.62Y-123.825
X134.645Y-79.451
X134.645Y-122.631
X135.89Y-58.42
X135.89Y-66.04
X135.89Y-68.58
X135.89Y-73.66
X135.89Y-85.725
X135.89Y-87.63
X135.89Y-92.71
X135.89Y-95.25
X135.89Y-97.79
X135.89Y-101.6
X135.89Y-109.22
X135.89Y-111.76
X135.89Y-116.84
X135.89Y-128.905
X135.89Y-130.81
X135.89Y-135.89
X135.89Y-138.43
X135.89Y-140.97
X136.207Y-71.438
X136.207Y-114.617
X136.324Y-74.93
X136.324Y-118.11
X138.361Y-81.707
X138.361Y-124.887
X138.43Y-58.42
X138.43Y-66.04
X138.43Y-68.58
X138.43Y-73.66
X138.43Y-83.82
X138.43Y-85.725
X138.43Y-87.63
X138.43Y-92.71
X138.43Y-95.25
X138.43Y-97.79
X138.43Y-101.6
X138.43Y-109.22
X138.43Y-111.76
X138.43Y-116.84
X138.43Y-127.0
X138.43Y-128.905
X138.43Y-130.81
X138.43Y-135.89
X138.43Y-138.43
X138.43Y-140.97
X139.7Y-83.82
X139.7Y-127.0
X140.97Y-58.42
X140.97Y-66.04
X140.97Y-68.58
X140.97Y-71.12
X140.97Y-92.71
X140.97Y-95.25
X140.97Y-97.79
X140.97Y-101.6
X140.97Y-109.22
X140.97Y-111.76
X140.97Y-114.3
X140.97Y-135.89
X140.97Y-138.43
X140.97Y-140.97
X141.605Y-83.147
X141.605Y-126.327
X142.24Y-81.28
X142.24Y-124.46
X142.322Y-88.265
X142.322Y-131.445
X142.335Y-92.388
X142.335Y-135.568
X142.935Y-89.623
X142.935Y-94.675
X142.935Y-132.803
X142.935Y-137.855
X143.074Y-79.621
X143.074Y-122.801
X143.51Y-58.42
X143.51Y-101.6
X143.548Y-90.825
X143.548Y-134.005
X151.13Y-58.42
X151.13Y-101.6
X151.338Y-91.743
X151.338Y-134.923
X152.777Y-93.39
X152.777Y-136.57
X153.06Y-70.485
X153.06Y-113.665
X153.67Y-58.42
X153.67Y-66.04
X153.67Y-73.66
X153.67Y-76.2
X153.67Y-78.74
X153.67Y-95.25
X153.67Y-97.79
X153.67Y-101.6
X153.67Y-109.22
X153.67Y-116.84
X153.67Y-119.38
X153.67Y-121.92
X153.67Y-138.43
X153.67Y-140.97
X154.227Y-92.788
X154.227Y-135.968
X154.867Y-83.112
X154.867Y-126.292
X154.94Y-80.645
X154.94Y-123.825
X154.965Y-79.451
X154.965Y-122.631
X156.21Y-58.42
X156.21Y-66.04
X156.21Y-68.58
X156.21Y-73.66
X156.21Y-85.725
X156.21Y-87.63
X156.21Y-92.71
X156.21Y-95.25
X156.21Y-97.79
X156.21Y-101.6
X156.21Y-109.22
X156.21Y-111.76
X156.21Y-116.84
X156.21Y-128.905
X156.21Y-130.81
X156.21Y-135.89
X156.21Y-138.43
X156.21Y-140.97
X156.528Y-71.438
X156.528Y-114.617
X156.644Y-74.93
X156.644Y-118.11
X158.681Y-81.707
X158.681Y-124.887
X158.75Y-58.42
X158.75Y-66.04
X158.75Y-68.58
X158.75Y-73.66
X158.75Y-83.82
X158.75Y-85.725
X158.75Y-87.63
X158.75Y-92.71
X158.75Y-95.25
X158.75Y-97.79
X158.75Y-101.6
X158.75Y-109.22
X158.75Y-111.76
X158.75Y-116.84
X158.75Y-127.0
X158.75Y-128.905
X158.75Y-130.81
X158.75Y-135.89
X158.75Y-138.43
X158.75Y-140.97
X160.02Y-83.82
X160.02Y-127.0
X161.29Y-58.42
X161.29Y-66.04
X161.29Y-68.58
X161.29Y-71.12
X161.29Y-92.71
X161.29Y-95.25
X161.29Y-97.79
X161.29Y-101.6
X161.29Y-109.22
X161.29Y-111.76
X161.29Y-114.3
X161.29Y-135.89
X161.29Y-138.43
X161.29Y-140.97
X161.925Y-83.147
X161.925Y-126.327
X162.56Y-81.28
X162.56Y-124.46
X162.642Y-88.265
X162.642Y-131.445
X162.655Y-92.388
X162.655Y-135.568
X163.255Y-89.623
X163.255Y-94.675
X163.255Y-132.803
X163.255Y-137.855
X163.394Y-79.621
X163.394Y-122.801
X163.83Y-58.42
X163.83Y-101.6
X163.868Y-90.825
X163.868Y-134.005
T2
X88.9Y-64.77
X88.9Y-67.31
X88.9Y-69.85
X88.9Y-72.39
X88.9Y-74.93
X88.9Y-77.47
X88.9Y-80.01
X88.9Y-82.55
X88.9Y-85.09
X88.9Y-87.63
X88.9Y-90.17
X88.9Y-92.71
X88.9Y-95.25
X88.9Y-97.79
X88.9Y-107.95
X88.9Y-110.49
X88.9Y-113.03
X88.9Y-115.57
X88.9Y-118.11
X88.9Y-120.65
X88.9Y-123.19
X88.9Y-125.73
X88.9Y-128.27
X88.9Y-130.81
X88.9Y-133.35
X88.9Y-135.89
X88.9Y-138.43
X88.9Y-140.97
X92.71Y-60.96
X92.71Y-104.14
X100.33Y-60.96
X100.33Y-104.14
X104.14Y-64.77
X104.14Y-67.31
X104.14Y-69.85
X104.14Y-72.39
X104.14Y-74.93
X104.14Y-77.47
X104.14Y-80.01
X104.14Y-82.55
X104.14Y-85.09
X104.14Y-87.63
X104.14Y-90.17
X104.14Y-92.71
X104.14Y-95.25
X104.14Y-97.79
X104.14Y-107.95
X104.14Y-110.49
X104.14Y-113.03
X104.14Y-115.57
X104.14Y-118.11
X104.14Y-120.65
X104.14Y-123.19
X104.14Y-125.73
X104.14Y-128.27
X104.14Y-130.81
X104.14Y-133.35
X104.14Y-135.89
X104.14Y-138.43
X104.14Y-140.97
X109.22Y-64.77
X109.22Y-67.31
X109.22Y-69.85
X109.22Y-72.39
X109.22Y-74.93
X109.22Y-77.47
X109.22Y-80.01
X109.22Y-82.55
X109.22Y-85.09
X109.22Y-87.63
X109.22Y-90.17
X109.22Y-92.71
X109.22Y-95.25
X109.22Y-97.79
X109.22Y-107.95
X109.22Y-110.49
X109.22Y-113.03
X109.22Y-115.57
X109.22Y-118.11
X109.22Y-120.65
X109.22Y-123.19
X109.22Y-125.73
X109.22Y-128.27
X109.22Y-130.81
X109.22Y-133.35
X109.22Y-135.89
X109.22Y-138.43
X109.22Y-140.97
X113.03Y-60.96
X113.03Y-104.14
X120.65Y-60.96
X120.65Y-104.14
X124.46Y-64.77
X124.46Y-67.31
X124.46Y-69.85
X124.46Y-72.39
X124.46Y-74.93
X124.46Y-77.47
X124.46Y-80.01
X124.46Y-82.55
X124.46Y-85.09
X124.46Y-87.63
X124.46Y-90.17
X124.46Y-92.71
X124.46Y-95.25
X124.46Y-97.79
X124.46Y-107.95
X124.46Y-110.49
X124.46Y-113.03
X124.46Y-115.57
X124.46Y-118.11
X124.46Y-120.65
X124.46Y-123.19
X124.46Y-125.73
X124.46Y-128.27
X124.46Y-130.81
X124.46Y-133.35
X124.46Y-135.89
X124.46Y-138.43
X124.46Y-140.97
X129.54Y-64.77
X129.54Y-67.31
X129.54Y-69.85
X129.54Y-72.39
X129.54Y-74.93
X129.54Y-77.47
X129.54Y-80.01
X129.54Y-82.55
X129.54Y-85.09
X129.54Y-87.63
X129.54Y-90.17
X129.54Y-92.71
X129.54Y-95.25
X129.54Y-97.79
X129.54Y-107.95
X129.54Y-110.49
X129.54Y-113.03
X129.54Y-115.57
X129.54Y-118.11
X129.54Y-120.65
X129.54Y-123.19
X129.54Y-125.73
X129.54Y-128.27
X129.54Y-130.81
X129.54Y-133.35
X129.54Y-135.89
X129.54Y-138.43
X129.54Y-140.97
X133.35Y-60.96
X133.35Y-104.14
X140.97Y-60.96
X140.97Y-104.14
X144.78Y-64.77
X144.78Y-67.31
X144.78Y-69.85
X144.78Y-72.39
X144.78Y-74.93
X144.78Y-77.47
X144.78Y-80.01
X144.78Y-82.55
X144.78Y-85.09
X144.78Y-87.63
X144.78Y-90.17
X144.78Y-92.71
X144.78Y-95.25
X144.78Y-97.79
X144.78Y-107.95
X144.78Y-110.49
X144.78Y-113.03
X144.78Y-115.57
X144.78Y-118.11
X144.78Y-120.65
X144.78Y-123.19
X144.78Y-125.73
X144.78Y-128.27
X144.78Y-130.81
X144.78Y-133.35
X144.78Y-135.89
X144.78Y-138.43
X144.78Y-140.97
X149.86Y-64.77
X149.86Y-67.31
X149.86Y-69.85
X149.86Y-72.39
X149.86Y-74.93
X149.86Y-77.47
X149.86Y-80.01
X149.86Y-82.55
X149.86Y-85.09
X149.86Y-87.63
X149.86Y-90.17
X149.86Y-92.71
X149.86Y-95.25
X149.86Y-97.79
X149.86Y-107.95
X149.86Y-110.49
X149.86Y-113.03
X149.86Y-115.57
X149.86Y-118.11
X149.86Y-120.65
X149.86Y-123.19
X149.86Y-125.73
X149.86Y-128.27
X149.86Y-130.81
X149.86Y-133.35
X149.86Y-135.89
X149.86Y-138.43
X149.86Y-140.97
X153.67Y-60.96
X153.67Y-104.14
X161.29Y-60.96
X161.29Y-104.14
X165.1Y-64.77
X165.1Y-67.31
X165.1Y-69.85
X165.1Y-72.39
X165.1Y-74.93
X165.1Y-77.47
X165.1Y-80.01
X165.1Y-82.55
X165.1Y-85.09
X165.1Y-87.63
X165.1Y-90.17
X165.1Y-92.71
X165.1Y-95.25
X165.1Y-97.79
X165.1Y-107.95
X165.1Y-110.49
X165.1Y-113.03
X165.1Y-115.57
X165.1Y-118.11
X165.1Y-120.65
X165.1Y-123.19
X165.1Y-125.73
X165.1Y-128.27
X165.1Y-130.81
X165.1Y-133.35
X165.1Y-135.89
X165.1Y-138.43
X165.1Y-140.97
T3
X87.63Y-58.42
X87.63Y-60.96
X87.63Y-63.5
X87.63Y-66.04
X87.63Y-68.58
X87.63Y-71.12
X87.63Y-73.66
X87.63Y-76.2
X87.63Y-78.74
X87.63Y-81.28
X87.63Y-83.82
X87.63Y-86.36
X87.63Y-88.9
X87.63Y-91.44
X87.63Y-93.98
X87.63Y-96.52
X87.63Y-99.06
X87.63Y-101.6
X87.63Y-104.14
X87.63Y-106.68
X87.63Y-109.22
X87.63Y-111.76
X87.63Y-114.3
X87.63Y-116.84
X87.63Y-119.38
X87.63Y-121.92
X87.63Y-124.46
X87.63Y-127.0
X87.63Y-129.54
X87.63Y-132.08
X87.63Y-134.62
X87.63Y-137.16
X87.63Y-139.7
X87.63Y-142.24
X92.71Y-90.17
X92.71Y-133.35
X95.25Y-90.17
X95.25Y-133.35
X97.79Y-90.17
X97.79Y-133.35
X100.33Y-90.17
X100.33Y-133.35
X105.41Y-58.42
X105.41Y-60.96
X105.41Y-63.5
X105.41Y-66.04
X105.41Y-68.58
X105.41Y-71.12
X105.41Y-73.66
X105.41Y-76.2
X105.41Y-78.74
X105.41Y-81.28
X105.41Y-83.82
X105.41Y-86.36
X105.41Y-88.9
X105.41Y-91.44
X105.41Y-93.98
X105.41Y-96.52
X105.41Y-99.06
X105.41Y-101.6
X105.41Y-104.14
X105.41Y-106.68
X105.41Y-109.22
X105.41Y-111.76
X105.41Y-114.3
X105.41Y-116.84
X105.41Y-119.38
X105.41Y-121.92
X105.41Y-124.46
X105.41Y-127.0
X105.41Y-129.54
X105.41Y-132.08
X105.41Y-134.62
X105.41Y-137.16
X105.41Y-139.7
X105.41Y-142.24
X107.95Y-58.42
X107.95Y-60.96
X107.95Y-63.5
X107.95Y-66.04
X107.95Y-68.58
X107.95Y-71.12
X107.95Y-73.66
X107.95Y-76.2
X107.95Y-78.74
X107.95Y-81.28
X107.95Y-83.82
X107.95Y-86.36
X107.95Y-88.9
X107.95Y-91.44
X107.95Y-93.98
X107.95Y-96.52
X107.95Y-99.06
X107.95Y-101.6
X107.95Y-104.14
X107.95Y-106.68
X107.95Y-109.22
X107.95Y-111.76
X107.95Y-114.3
X107.95Y-116.84
X107.95Y-119.38
X107.95Y-121.92
X107.95Y-124.46
X107.95Y-127.0
X107.95Y-129.54
X107.95Y-132.08
X107.95Y-134.62
X107.95Y-137.16
X107.95Y-139.7
X107.95Y-142.24
X113.03Y-90.17
X113.03Y-133.35
X115.57Y-90.17
X115.57Y-133.35
X118.11Y-90.17
X118.11Y-133.35
X120.65Y-90.17
X120.65Y-133.35
X125.73Y-58.42
X125.73Y-60.96
X125.73Y-63.5
X125.73Y-66.04
X125.73Y-68.58
X125.73Y-71.12
X125.73Y-73.66
X125.73Y-76.2
X125.73Y-78.74
X125.73Y-81.28
X125.73Y-83.82
X125.73Y-86.36
X125.73Y-88.9
X125.73Y-91.44
X125.73Y-93.98
X125.73Y-96.52
X125.73Y-99.06
X125.73Y-101.6
X125.73Y-104.14
X125.73Y-106.68
X125.73Y-109.22
X125.73Y-111.76
X125.73Y-114.3
X125.73Y-116.84
X125.73Y-119.38
X125.73Y-121.92
X125.73Y-124.46
X125.73Y-127.0
X125.73Y-129.54
X125.73Y-132.08
X125.73Y-134.62
X125.73Y-137.16
X125.73Y-139.7
X125.73Y-142.24
X128.27Y-58.42
X128.27Y-60.96
X128.27Y-63.5
X128.27Y-66.04
X128.27Y-68.58
X128.27Y-71.12
X128.27Y-73.66
X128.27Y-76.2
X128.27Y-78.74
X128.27Y-81.28
X128.27Y-83.82
X128.27Y-86.36
X128.27Y-88.9
X128.27Y-91.44
X128.27Y-93.98
X128.27Y-96.52
X128.27Y-99.06
X128.27Y-101.6
X128.27Y-104.14
X128.27Y-106.68
X128.27Y-109.22
X128.27Y-111.76
X128.27Y-114.3
X128.27Y-116.84
X128.27Y-119.38
X128.27Y-121.92
X128.27Y-124.46
X128.27Y-127.0
X128.27Y-129.54
X128.27Y-132.08
X128.27Y-134.62
X128.27Y-137.16
X128.27Y-139.7
X128.27Y-142.24
X133.35Y-90.17
X133.35Y-133.35
X135.89Y-90.17
X135.89Y-133.35
X138.43Y-90.17
X138.43Y-133.35
X140.97Y-90.17
X140.97Y-133.35
X146.05Y-58.42
X146.05Y-60.96
X146.05Y-63.5
X146.05Y-66.04
X146.05Y-68.58
X146.05Y-71.12
X146.05Y-73.66
X146.05Y-76.2
X146.05Y-78.74
X146.05Y-81.28
X146.05Y-83.82
X146.05Y-86.36
X146.05Y-88.9
X146.05Y-91.44
X146.05Y-93.98
X146.05Y-96.52
X146.05Y-99.06
X146.05Y-101.6
X146.05Y-104.14
X146.05Y-106.68
X146.05Y-109.22
X146.05Y-111.76
X146.05Y-114.3
X146.05Y-116.84
X146.05Y-119.38
X146.05Y-121.92
X146.05Y-124.46
X146.05Y-127.0
X146.05Y-129.54
X146.05Y-132.08
X146.05Y-134.62
X146.05Y-137.16
X146.05Y-139.7
X146.05Y-142.24
X148.59Y-58.42
X148.59Y-60.96
X148.59Y-63.5
X148.59Y-66.04
X148.59Y-68.58
X148.59Y-71.12
X148.59Y-73.66
X148.59Y-76.2
X148.59Y-78.74
X148.59Y-81.28
X148.59Y-83.82
X148.59Y-86.36
X148.59Y-88.9
X148.59Y-91.44
X148.59Y-93.98
X148.59Y-96.52
X148.59Y-99.06
X148.59Y-101.6
X148.59Y-104.14
X148.59Y-106.68
X148.59Y-109.22
X148.59Y-111.76
X148.59Y-114.3
X148.59Y-116.84
X148.59Y-119.38
X148.59Y-121.92
X148.59Y-124.46
X148.59Y-127.0
X148.59Y-129.54
X148.59Y-132.08
X148.59Y-134.62
X148.59Y-137.16
X148.59Y-139.7
X148.59Y-142.24
X153.67Y-90.17
X153.67Y-133.35
X156.21Y-90.17
X156.21Y-133.35
X158.75Y-90.17
X158.75Y-133.35
X161.29Y-90.17
X161.29Y-133.35
X166.37Y-58.42
X166.37Y-60.96
X166.37Y-63.5
X166.37Y-66.04
X166.37Y-68.58
X166.37Y-71.12
X166.37Y-73.66
X166.37Y-76.2
X166.37Y-78.74
X166.37Y-81.28
X166.37Y-83.82
X166.37Y-86.36
X166.37Y-88.9
X166.37Y-91.44
X166.37Y-93.98
X166.37Y-96.52
X166.37Y-99.06
X166.37Y-101.6
X166.37Y-104.14
X166.37Y-106.68
X166.37Y-109.22
X166.37Y-111.76
X166.37Y-114.3
X166.37Y-116.84
X166.37Y-119.38
X166.37Y-121.92
X166.37Y-124.46
X166.37Y-127.0
X166.37Y-129.54
X166.37Y-132.08
X166.37Y-134.62
X166.37Y-137.16
X166.37Y-139.7
X166.37Y-142.24
T4
X81.28Y-53.975
X81.28Y-146.685
X172.72Y-53.975
X172.72Y-146.685
M30
