%TF.GenerationSoftware,KiCad,Pcbnew,8.0.6*%
%TF.CreationDate,2024-10-27T05:06:58+09:00*%
%TF.ProjectId,rp27c512-panel,72703237-6335-4313-922d-70616e656c2e,rev?*%
%TF.SameCoordinates,Original*%
%TF.FileFunction,Soldermask,Top*%
%TF.FilePolarity,Negative*%
%FSLAX46Y46*%
G04 Gerber Fmt 4.6, Leading zero omitted, Abs format (unit mm)*
G04 Created by KiCad (PCBNEW 8.0.6) date 2024-10-27 05:06:58*
%MOMM*%
%LPD*%
G01*
G04 APERTURE LIST*
%ADD10C,2.200000*%
%ADD11C,3.000000*%
%ADD12O,1.700000X1.700000*%
%ADD13R,1.700000X1.700000*%
%ADD14C,1.500000*%
%ADD15C,1.700000*%
%ADD16O,1.600000X1.600000*%
%ADD17R,1.600000X1.600000*%
G04 APERTURE END LIST*
D10*
%TO.C,REF\u002A\u002A*%
X81280000Y-53975000D03*
%TD*%
%TO.C,REF\u002A\u002A*%
X81280000Y-146685000D03*
%TD*%
%TO.C,REF\u002A\u002A*%
X172720000Y-146685000D03*
%TD*%
%TO.C,REF\u002A\u002A*%
X172720000Y-53975000D03*
%TD*%
D11*
%TO.C,REF\u002A\u002A*%
X162560000Y-147320000D03*
%TD*%
%TO.C,REF\u002A\u002A*%
X91440000Y-53340000D03*
%TD*%
D12*
%TO.C,J2*%
X166370000Y-142240000D03*
X166370000Y-139700000D03*
X166370000Y-137160000D03*
X166370000Y-134620000D03*
X166370000Y-132080000D03*
X166370000Y-129540000D03*
X166370000Y-127000000D03*
X166370000Y-124460000D03*
X166370000Y-121920000D03*
X166370000Y-119380000D03*
X166370000Y-116840000D03*
X166370000Y-114300000D03*
X166370000Y-111760000D03*
X166370000Y-109220000D03*
X166370000Y-106680000D03*
X166370000Y-104140000D03*
D13*
X166370000Y-101600000D03*
%TD*%
D12*
%TO.C,J1*%
X148590000Y-142240000D03*
X148590000Y-139700000D03*
X148590000Y-137160000D03*
X148590000Y-134620000D03*
X148590000Y-132080000D03*
X148590000Y-129540000D03*
X148590000Y-127000000D03*
X148590000Y-124460000D03*
X148590000Y-121920000D03*
X148590000Y-119380000D03*
X148590000Y-116840000D03*
X148590000Y-114300000D03*
X148590000Y-111760000D03*
X148590000Y-109220000D03*
X148590000Y-106680000D03*
X148590000Y-104140000D03*
D13*
X148590000Y-101600000D03*
%TD*%
D14*
%TO.C,U1*%
X165100000Y-107950000D03*
X165100000Y-110490000D03*
X165100000Y-113030000D03*
X165100000Y-115570000D03*
X165100000Y-118110000D03*
X165100000Y-120650000D03*
X165100000Y-123190000D03*
X165100000Y-125730000D03*
X165100000Y-128270000D03*
X165100000Y-130810000D03*
X165100000Y-133350000D03*
X165100000Y-135890000D03*
X165100000Y-138430000D03*
X165100000Y-140970000D03*
X149860000Y-140970000D03*
X149860000Y-138430000D03*
X149860000Y-135890000D03*
X149860000Y-133350000D03*
X149860000Y-130810000D03*
X149860000Y-128270000D03*
X149860000Y-125730000D03*
X149860000Y-123190000D03*
X149860000Y-120650000D03*
X149860000Y-118110000D03*
X149860000Y-115570000D03*
X149860000Y-113030000D03*
X149860000Y-110490000D03*
X149860000Y-107950000D03*
%TD*%
D12*
%TO.C,J3*%
X153670000Y-133350000D03*
X156210000Y-133350000D03*
X158750000Y-133350000D03*
D15*
X161290000Y-133350000D03*
%TD*%
D16*
%TO.C,D1*%
X161290000Y-104140000D03*
D17*
X153670000Y-104140000D03*
%TD*%
D12*
%TO.C,J2*%
X146050000Y-142240000D03*
X146050000Y-139700000D03*
X146050000Y-137160000D03*
X146050000Y-134620000D03*
X146050000Y-132080000D03*
X146050000Y-129540000D03*
X146050000Y-127000000D03*
X146050000Y-124460000D03*
X146050000Y-121920000D03*
X146050000Y-119380000D03*
X146050000Y-116840000D03*
X146050000Y-114300000D03*
X146050000Y-111760000D03*
X146050000Y-109220000D03*
X146050000Y-106680000D03*
X146050000Y-104140000D03*
D13*
X146050000Y-101600000D03*
%TD*%
D12*
%TO.C,J1*%
X128270000Y-142240000D03*
X128270000Y-139700000D03*
X128270000Y-137160000D03*
X128270000Y-134620000D03*
X128270000Y-132080000D03*
X128270000Y-129540000D03*
X128270000Y-127000000D03*
X128270000Y-124460000D03*
X128270000Y-121920000D03*
X128270000Y-119380000D03*
X128270000Y-116840000D03*
X128270000Y-114300000D03*
X128270000Y-111760000D03*
X128270000Y-109220000D03*
X128270000Y-106680000D03*
X128270000Y-104140000D03*
D13*
X128270000Y-101600000D03*
%TD*%
D14*
%TO.C,U1*%
X144780000Y-107950000D03*
X144780000Y-110490000D03*
X144780000Y-113030000D03*
X144780000Y-115570000D03*
X144780000Y-118110000D03*
X144780000Y-120650000D03*
X144780000Y-123190000D03*
X144780000Y-125730000D03*
X144780000Y-128270000D03*
X144780000Y-130810000D03*
X144780000Y-133350000D03*
X144780000Y-135890000D03*
X144780000Y-138430000D03*
X144780000Y-140970000D03*
X129540000Y-140970000D03*
X129540000Y-138430000D03*
X129540000Y-135890000D03*
X129540000Y-133350000D03*
X129540000Y-130810000D03*
X129540000Y-128270000D03*
X129540000Y-125730000D03*
X129540000Y-123190000D03*
X129540000Y-120650000D03*
X129540000Y-118110000D03*
X129540000Y-115570000D03*
X129540000Y-113030000D03*
X129540000Y-110490000D03*
X129540000Y-107950000D03*
%TD*%
D12*
%TO.C,J3*%
X133350000Y-133350000D03*
X135890000Y-133350000D03*
X138430000Y-133350000D03*
D15*
X140970000Y-133350000D03*
%TD*%
D16*
%TO.C,D1*%
X140970000Y-104140000D03*
D17*
X133350000Y-104140000D03*
%TD*%
D12*
%TO.C,J2*%
X125730000Y-142240000D03*
X125730000Y-139700000D03*
X125730000Y-137160000D03*
X125730000Y-134620000D03*
X125730000Y-132080000D03*
X125730000Y-129540000D03*
X125730000Y-127000000D03*
X125730000Y-124460000D03*
X125730000Y-121920000D03*
X125730000Y-119380000D03*
X125730000Y-116840000D03*
X125730000Y-114300000D03*
X125730000Y-111760000D03*
X125730000Y-109220000D03*
X125730000Y-106680000D03*
X125730000Y-104140000D03*
D13*
X125730000Y-101600000D03*
%TD*%
D12*
%TO.C,J1*%
X107950000Y-142240000D03*
X107950000Y-139700000D03*
X107950000Y-137160000D03*
X107950000Y-134620000D03*
X107950000Y-132080000D03*
X107950000Y-129540000D03*
X107950000Y-127000000D03*
X107950000Y-124460000D03*
X107950000Y-121920000D03*
X107950000Y-119380000D03*
X107950000Y-116840000D03*
X107950000Y-114300000D03*
X107950000Y-111760000D03*
X107950000Y-109220000D03*
X107950000Y-106680000D03*
X107950000Y-104140000D03*
D13*
X107950000Y-101600000D03*
%TD*%
D14*
%TO.C,U1*%
X124460000Y-107950000D03*
X124460000Y-110490000D03*
X124460000Y-113030000D03*
X124460000Y-115570000D03*
X124460000Y-118110000D03*
X124460000Y-120650000D03*
X124460000Y-123190000D03*
X124460000Y-125730000D03*
X124460000Y-128270000D03*
X124460000Y-130810000D03*
X124460000Y-133350000D03*
X124460000Y-135890000D03*
X124460000Y-138430000D03*
X124460000Y-140970000D03*
X109220000Y-140970000D03*
X109220000Y-138430000D03*
X109220000Y-135890000D03*
X109220000Y-133350000D03*
X109220000Y-130810000D03*
X109220000Y-128270000D03*
X109220000Y-125730000D03*
X109220000Y-123190000D03*
X109220000Y-120650000D03*
X109220000Y-118110000D03*
X109220000Y-115570000D03*
X109220000Y-113030000D03*
X109220000Y-110490000D03*
X109220000Y-107950000D03*
%TD*%
D12*
%TO.C,J3*%
X113030000Y-133350000D03*
X115570000Y-133350000D03*
X118110000Y-133350000D03*
D15*
X120650000Y-133350000D03*
%TD*%
D16*
%TO.C,D1*%
X120650000Y-104140000D03*
D17*
X113030000Y-104140000D03*
%TD*%
D12*
%TO.C,J2*%
X105410000Y-142240000D03*
X105410000Y-139700000D03*
X105410000Y-137160000D03*
X105410000Y-134620000D03*
X105410000Y-132080000D03*
X105410000Y-129540000D03*
X105410000Y-127000000D03*
X105410000Y-124460000D03*
X105410000Y-121920000D03*
X105410000Y-119380000D03*
X105410000Y-116840000D03*
X105410000Y-114300000D03*
X105410000Y-111760000D03*
X105410000Y-109220000D03*
X105410000Y-106680000D03*
X105410000Y-104140000D03*
D13*
X105410000Y-101600000D03*
%TD*%
D12*
%TO.C,J1*%
X87630000Y-142240000D03*
X87630000Y-139700000D03*
X87630000Y-137160000D03*
X87630000Y-134620000D03*
X87630000Y-132080000D03*
X87630000Y-129540000D03*
X87630000Y-127000000D03*
X87630000Y-124460000D03*
X87630000Y-121920000D03*
X87630000Y-119380000D03*
X87630000Y-116840000D03*
X87630000Y-114300000D03*
X87630000Y-111760000D03*
X87630000Y-109220000D03*
X87630000Y-106680000D03*
X87630000Y-104140000D03*
D13*
X87630000Y-101600000D03*
%TD*%
D14*
%TO.C,U1*%
X104140000Y-107950000D03*
X104140000Y-110490000D03*
X104140000Y-113030000D03*
X104140000Y-115570000D03*
X104140000Y-118110000D03*
X104140000Y-120650000D03*
X104140000Y-123190000D03*
X104140000Y-125730000D03*
X104140000Y-128270000D03*
X104140000Y-130810000D03*
X104140000Y-133350000D03*
X104140000Y-135890000D03*
X104140000Y-138430000D03*
X104140000Y-140970000D03*
X88900000Y-140970000D03*
X88900000Y-138430000D03*
X88900000Y-135890000D03*
X88900000Y-133350000D03*
X88900000Y-130810000D03*
X88900000Y-128270000D03*
X88900000Y-125730000D03*
X88900000Y-123190000D03*
X88900000Y-120650000D03*
X88900000Y-118110000D03*
X88900000Y-115570000D03*
X88900000Y-113030000D03*
X88900000Y-110490000D03*
X88900000Y-107950000D03*
%TD*%
D12*
%TO.C,J3*%
X92710000Y-133350000D03*
X95250000Y-133350000D03*
X97790000Y-133350000D03*
D15*
X100330000Y-133350000D03*
%TD*%
D16*
%TO.C,D1*%
X100330000Y-104140000D03*
D17*
X92710000Y-104140000D03*
%TD*%
D12*
%TO.C,J2*%
X166370000Y-99060000D03*
X166370000Y-96520000D03*
X166370000Y-93980000D03*
X166370000Y-91440000D03*
X166370000Y-88900000D03*
X166370000Y-86360000D03*
X166370000Y-83820000D03*
X166370000Y-81280000D03*
X166370000Y-78740000D03*
X166370000Y-76200000D03*
X166370000Y-73660000D03*
X166370000Y-71120000D03*
X166370000Y-68580000D03*
X166370000Y-66040000D03*
X166370000Y-63500000D03*
X166370000Y-60960000D03*
D13*
X166370000Y-58420000D03*
%TD*%
D12*
%TO.C,J1*%
X148590000Y-99060000D03*
X148590000Y-96520000D03*
X148590000Y-93980000D03*
X148590000Y-91440000D03*
X148590000Y-88900000D03*
X148590000Y-86360000D03*
X148590000Y-83820000D03*
X148590000Y-81280000D03*
X148590000Y-78740000D03*
X148590000Y-76200000D03*
X148590000Y-73660000D03*
X148590000Y-71120000D03*
X148590000Y-68580000D03*
X148590000Y-66040000D03*
X148590000Y-63500000D03*
X148590000Y-60960000D03*
D13*
X148590000Y-58420000D03*
%TD*%
D14*
%TO.C,U1*%
X165100000Y-64770000D03*
X165100000Y-67310000D03*
X165100000Y-69850000D03*
X165100000Y-72390000D03*
X165100000Y-74930000D03*
X165100000Y-77470000D03*
X165100000Y-80010000D03*
X165100000Y-82550000D03*
X165100000Y-85090000D03*
X165100000Y-87630000D03*
X165100000Y-90170000D03*
X165100000Y-92710000D03*
X165100000Y-95250000D03*
X165100000Y-97790000D03*
X149860000Y-97790000D03*
X149860000Y-95250000D03*
X149860000Y-92710000D03*
X149860000Y-90170000D03*
X149860000Y-87630000D03*
X149860000Y-85090000D03*
X149860000Y-82550000D03*
X149860000Y-80010000D03*
X149860000Y-77470000D03*
X149860000Y-74930000D03*
X149860000Y-72390000D03*
X149860000Y-69850000D03*
X149860000Y-67310000D03*
X149860000Y-64770000D03*
%TD*%
D12*
%TO.C,J3*%
X153670000Y-90170000D03*
X156210000Y-90170000D03*
X158750000Y-90170000D03*
D15*
X161290000Y-90170000D03*
%TD*%
D16*
%TO.C,D1*%
X161290000Y-60960000D03*
D17*
X153670000Y-60960000D03*
%TD*%
D12*
%TO.C,J2*%
X146050000Y-99060000D03*
X146050000Y-96520000D03*
X146050000Y-93980000D03*
X146050000Y-91440000D03*
X146050000Y-88900000D03*
X146050000Y-86360000D03*
X146050000Y-83820000D03*
X146050000Y-81280000D03*
X146050000Y-78740000D03*
X146050000Y-76200000D03*
X146050000Y-73660000D03*
X146050000Y-71120000D03*
X146050000Y-68580000D03*
X146050000Y-66040000D03*
X146050000Y-63500000D03*
X146050000Y-60960000D03*
D13*
X146050000Y-58420000D03*
%TD*%
D12*
%TO.C,J1*%
X128270000Y-99060000D03*
X128270000Y-96520000D03*
X128270000Y-93980000D03*
X128270000Y-91440000D03*
X128270000Y-88900000D03*
X128270000Y-86360000D03*
X128270000Y-83820000D03*
X128270000Y-81280000D03*
X128270000Y-78740000D03*
X128270000Y-76200000D03*
X128270000Y-73660000D03*
X128270000Y-71120000D03*
X128270000Y-68580000D03*
X128270000Y-66040000D03*
X128270000Y-63500000D03*
X128270000Y-60960000D03*
D13*
X128270000Y-58420000D03*
%TD*%
D14*
%TO.C,U1*%
X144780000Y-64770000D03*
X144780000Y-67310000D03*
X144780000Y-69850000D03*
X144780000Y-72390000D03*
X144780000Y-74930000D03*
X144780000Y-77470000D03*
X144780000Y-80010000D03*
X144780000Y-82550000D03*
X144780000Y-85090000D03*
X144780000Y-87630000D03*
X144780000Y-90170000D03*
X144780000Y-92710000D03*
X144780000Y-95250000D03*
X144780000Y-97790000D03*
X129540000Y-97790000D03*
X129540000Y-95250000D03*
X129540000Y-92710000D03*
X129540000Y-90170000D03*
X129540000Y-87630000D03*
X129540000Y-85090000D03*
X129540000Y-82550000D03*
X129540000Y-80010000D03*
X129540000Y-77470000D03*
X129540000Y-74930000D03*
X129540000Y-72390000D03*
X129540000Y-69850000D03*
X129540000Y-67310000D03*
X129540000Y-64770000D03*
%TD*%
D12*
%TO.C,J3*%
X133350000Y-90170000D03*
X135890000Y-90170000D03*
X138430000Y-90170000D03*
D15*
X140970000Y-90170000D03*
%TD*%
D16*
%TO.C,D1*%
X140970000Y-60960000D03*
D17*
X133350000Y-60960000D03*
%TD*%
D12*
%TO.C,J2*%
X125730000Y-99060000D03*
X125730000Y-96520000D03*
X125730000Y-93980000D03*
X125730000Y-91440000D03*
X125730000Y-88900000D03*
X125730000Y-86360000D03*
X125730000Y-83820000D03*
X125730000Y-81280000D03*
X125730000Y-78740000D03*
X125730000Y-76200000D03*
X125730000Y-73660000D03*
X125730000Y-71120000D03*
X125730000Y-68580000D03*
X125730000Y-66040000D03*
X125730000Y-63500000D03*
X125730000Y-60960000D03*
D13*
X125730000Y-58420000D03*
%TD*%
D12*
%TO.C,J1*%
X107950000Y-99060000D03*
X107950000Y-96520000D03*
X107950000Y-93980000D03*
X107950000Y-91440000D03*
X107950000Y-88900000D03*
X107950000Y-86360000D03*
X107950000Y-83820000D03*
X107950000Y-81280000D03*
X107950000Y-78740000D03*
X107950000Y-76200000D03*
X107950000Y-73660000D03*
X107950000Y-71120000D03*
X107950000Y-68580000D03*
X107950000Y-66040000D03*
X107950000Y-63500000D03*
X107950000Y-60960000D03*
D13*
X107950000Y-58420000D03*
%TD*%
D14*
%TO.C,U1*%
X124460000Y-64770000D03*
X124460000Y-67310000D03*
X124460000Y-69850000D03*
X124460000Y-72390000D03*
X124460000Y-74930000D03*
X124460000Y-77470000D03*
X124460000Y-80010000D03*
X124460000Y-82550000D03*
X124460000Y-85090000D03*
X124460000Y-87630000D03*
X124460000Y-90170000D03*
X124460000Y-92710000D03*
X124460000Y-95250000D03*
X124460000Y-97790000D03*
X109220000Y-97790000D03*
X109220000Y-95250000D03*
X109220000Y-92710000D03*
X109220000Y-90170000D03*
X109220000Y-87630000D03*
X109220000Y-85090000D03*
X109220000Y-82550000D03*
X109220000Y-80010000D03*
X109220000Y-77470000D03*
X109220000Y-74930000D03*
X109220000Y-72390000D03*
X109220000Y-69850000D03*
X109220000Y-67310000D03*
X109220000Y-64770000D03*
%TD*%
D12*
%TO.C,J3*%
X113030000Y-90170000D03*
X115570000Y-90170000D03*
X118110000Y-90170000D03*
D15*
X120650000Y-90170000D03*
%TD*%
D16*
%TO.C,D1*%
X120650000Y-60960000D03*
D17*
X113030000Y-60960000D03*
%TD*%
D12*
%TO.C,J2*%
X105410000Y-99060000D03*
X105410000Y-96520000D03*
X105410000Y-93980000D03*
X105410000Y-91440000D03*
X105410000Y-88900000D03*
X105410000Y-86360000D03*
X105410000Y-83820000D03*
X105410000Y-81280000D03*
X105410000Y-78740000D03*
X105410000Y-76200000D03*
X105410000Y-73660000D03*
X105410000Y-71120000D03*
X105410000Y-68580000D03*
X105410000Y-66040000D03*
X105410000Y-63500000D03*
X105410000Y-60960000D03*
D13*
X105410000Y-58420000D03*
%TD*%
D12*
%TO.C,J3*%
X92710000Y-90170000D03*
X95250000Y-90170000D03*
X97790000Y-90170000D03*
D15*
X100330000Y-90170000D03*
%TD*%
D12*
%TO.C,J1*%
X87630000Y-99060000D03*
X87630000Y-96520000D03*
X87630000Y-93980000D03*
X87630000Y-91440000D03*
X87630000Y-88900000D03*
X87630000Y-86360000D03*
X87630000Y-83820000D03*
X87630000Y-81280000D03*
X87630000Y-78740000D03*
X87630000Y-76200000D03*
X87630000Y-73660000D03*
X87630000Y-71120000D03*
X87630000Y-68580000D03*
X87630000Y-66040000D03*
X87630000Y-63500000D03*
X87630000Y-60960000D03*
D13*
X87630000Y-58420000D03*
%TD*%
D14*
%TO.C,U1*%
X104140000Y-64770000D03*
X104140000Y-67310000D03*
X104140000Y-69850000D03*
X104140000Y-72390000D03*
X104140000Y-74930000D03*
X104140000Y-77470000D03*
X104140000Y-80010000D03*
X104140000Y-82550000D03*
X104140000Y-85090000D03*
X104140000Y-87630000D03*
X104140000Y-90170000D03*
X104140000Y-92710000D03*
X104140000Y-95250000D03*
X104140000Y-97790000D03*
X88900000Y-97790000D03*
X88900000Y-95250000D03*
X88900000Y-92710000D03*
X88900000Y-90170000D03*
X88900000Y-87630000D03*
X88900000Y-85090000D03*
X88900000Y-82550000D03*
X88900000Y-80010000D03*
X88900000Y-77470000D03*
X88900000Y-74930000D03*
X88900000Y-72390000D03*
X88900000Y-69850000D03*
X88900000Y-67310000D03*
X88900000Y-64770000D03*
%TD*%
D16*
%TO.C,D1*%
X100330000Y-60960000D03*
D17*
X92710000Y-60960000D03*
%TD*%
M02*
